<mxfile host="65bd71144e">
    <diagram id="5u-z4PioqmzD-_ICidr8" name="Page-1">
        <mxGraphModel dx="2424" dy="1029" grid="0" gridSize="10" guides="1" tooltips="1" connect="1" arrows="1" fold="1" page="0" pageScale="1" pageWidth="1100" pageHeight="850" math="0" shadow="0">
            <root>
                <mxCell id="0"/>
                <mxCell id="1" parent="0"/>
                <mxCell id="2" style="edgeStyle=none;html=1;exitX=1;exitY=0.5;exitDx=0;exitDy=0;entryX=0;entryY=0.5;entryDx=0;entryDy=0;" edge="1" parent="1" source="3" target="18">
                    <mxGeometry relative="1" as="geometry"/>
                </mxCell>
                <mxCell id="3" value="Random Twitch User Authorizes the App From Url" style="rounded=1;whiteSpace=wrap;html=1;" vertex="1" parent="1">
                    <mxGeometry x="123" y="293" width="148" height="60" as="geometry"/>
                </mxCell>
                <mxCell id="4" style="edgeStyle=none;html=1;exitX=1;exitY=0.5;exitDx=0;exitDy=0;entryX=0;entryY=0.5;entryDx=0;entryDy=0;" edge="1" parent="1" source="5" target="3">
                    <mxGeometry relative="1" as="geometry"/>
                </mxCell>
                <mxCell id="5" value="Create Auth Url with channel:bot scope" style="rounded=1;whiteSpace=wrap;html=1;" vertex="1" parent="1">
                    <mxGeometry x="-75" y="293" width="120" height="60" as="geometry"/>
                </mxCell>
                <mxCell id="6" value="Connect as bot user" style="text;html=1;strokeColor=none;fillColor=none;align=center;verticalAlign=middle;whiteSpace=wrap;rounded=0;" vertex="1" parent="1">
                    <mxGeometry x="-305" y="365" width="165" height="30" as="geometry"/>
                </mxCell>
                <mxCell id="7" style="edgeStyle=none;html=1;exitX=1;exitY=0.5;exitDx=0;exitDy=0;entryX=0;entryY=0.5;entryDx=0;entryDy=0;" edge="1" parent="1" source="8" target="10">
                    <mxGeometry relative="1" as="geometry"/>
                </mxCell>
                <mxCell id="8" value="Create Auth Url with user:chat:read, user:chat:write, user:bot scopes" style="rounded=1;whiteSpace=wrap;html=1;" vertex="1" parent="1">
                    <mxGeometry x="-116" y="409" width="161" height="60" as="geometry"/>
                </mxCell>
                <mxCell id="9" style="edgeStyle=none;html=1;exitX=1;exitY=0.5;exitDx=0;exitDy=0;entryX=0;entryY=0.5;entryDx=0;entryDy=0;" edge="1" parent="1" source="10" target="16">
                    <mxGeometry relative="1" as="geometry"/>
                </mxCell>
                <mxCell id="10" value="Navigate to auth url as your BOT account" style="rounded=1;whiteSpace=wrap;html=1;" vertex="1" parent="1">
                    <mxGeometry x="137" y="409" width="120" height="60" as="geometry"/>
                </mxCell>
                <mxCell id="11" style="edgeStyle=none;html=1;exitX=0.5;exitY=0;exitDx=0;exitDy=0;entryX=0.5;entryY=1;entryDx=0;entryDy=0;endArrow=none;endFill=0;" edge="1" parent="1" source="13" target="14">
                    <mxGeometry relative="1" as="geometry"/>
                </mxCell>
                <mxCell id="12" style="edgeStyle=none;html=1;exitX=1;exitY=0.5;exitDx=0;exitDy=0;entryX=0;entryY=0.5;entryDx=0;entryDy=0;endArrow=classic;endFill=1;" edge="1" parent="1" source="13" target="28">
                    <mxGeometry relative="1" as="geometry"/>
                </mxCell>
                <mxCell id="13" value="Create websocket connection with twitch (no auth needed here)" style="rounded=1;whiteSpace=wrap;html=1;" vertex="1" parent="1">
                    <mxGeometry x="985" y="405.5" width="169" height="67" as="geometry"/>
                </mxCell>
                <mxCell id="14" value="Within 10 sec you must subscribe to something" style="rounded=1;whiteSpace=wrap;html=1;" vertex="1" parent="1">
                    <mxGeometry x="1009.5" y="289" width="120" height="60" as="geometry"/>
                </mxCell>
                <mxCell id="15" style="edgeStyle=none;html=1;exitX=1;exitY=0.5;exitDx=0;exitDy=0;entryX=0;entryY=0.5;entryDx=0;entryDy=0;" edge="1" parent="1" source="16" target="21">
                    <mxGeometry relative="1" as="geometry"/>
                </mxCell>
                <mxCell id="16" value="Capture the code sent back to the redirect uri" style="rounded=1;whiteSpace=wrap;html=1;" vertex="1" parent="1">
                    <mxGeometry x="349" y="409" width="120" height="60" as="geometry"/>
                </mxCell>
                <mxCell id="17" style="edgeStyle=none;html=1;exitX=0.5;exitY=0;exitDx=0;exitDy=0;entryX=0.5;entryY=1;entryDx=0;entryDy=0;endArrow=none;endFill=0;" edge="1" parent="1" source="18" target="25">
                    <mxGeometry relative="1" as="geometry"/>
                </mxCell>
                <mxCell id="18" value="dont really need the code from redirect (that i know of yet)" style="rounded=1;whiteSpace=wrap;html=1;" vertex="1" parent="1">
                    <mxGeometry x="349" y="293" width="120" height="60" as="geometry"/>
                </mxCell>
                <mxCell id="19" style="edgeStyle=none;html=1;exitX=0.5;exitY=1;exitDx=0;exitDy=0;entryX=0.5;entryY=0;entryDx=0;entryDy=0;endArrow=none;endFill=0;" edge="1" parent="1" source="21" target="22">
                    <mxGeometry relative="1" as="geometry"/>
                </mxCell>
                <mxCell id="20" style="edgeStyle=none;html=1;exitX=1;exitY=0.5;exitDx=0;exitDy=0;entryX=0;entryY=0.5;entryDx=0;entryDy=0;" edge="1" parent="1" source="21" target="24">
                    <mxGeometry relative="1" as="geometry"/>
                </mxCell>
                <mxCell id="21" value="Get User Auth Token using that code" style="rounded=1;whiteSpace=wrap;html=1;" vertex="1" parent="1">
                    <mxGeometry x="561" y="409" width="120" height="60" as="geometry"/>
                </mxCell>
                <mxCell id="22" value="" style="shape=image;verticalLabelPosition=bottom;labelBackgroundColor=default;verticalAlign=top;aspect=fixed;imageAspect=0;image=data:image/png,iVBORw0KGgoAAAANSUhEUgAAAnQAAAFjCAYAAAC0UpZxAAAABGdBTUEAALGPC/xhBQAAAAlwSFlzAAAOwgAADsIBFShKgAAAABJ0RVh0U29mdHdhcmUAR3JlZW5zaG90XlUIBQAAbCJJREFUeF7tvW9sG2ee53lv73B37+5eLlCdcSbujO2MM4mTOGHUrU67EytqJ3E6LbaVhGlFbVtps2PHo/xxM5qONfak2Y7ay/hao7bg4Rrycr3rA7OXOQ7OByLIDXMLgx6cQWPXoHfhpRcwjsAZqAOM1Avjfvf7VrHIUlWRoiTaEskvg0/Equepp5566qnv833+FP1fGYYhhBBCCCGke6GhI4QQQgjpcmjoCCGEEEK6HBo6QgghhJAuh4aOEEIIIaTLoaEjhBBCCOlyaOgIIYQQQrocGjpCCCGEkC6Hho4QQgghpMuhoSOEEEII6XJo6AghhBBCuhwaOkIIIYSQLqelodu+fbuMjIzI+Pi4TExMEEIIIYSQdUhTQ/fCCy/YbNy4Ub7zne+ExiGEEEIIIWtPqKHDyNzw8DCNHCGEEEJIFxBq6F577TV7ZC4sjBBCCCGErC9CDR3WzIXtJ4QQQggh649QQ4fFdWH7CSGEEELI+oOGjhBCCCGky6GhI4QQQgjpcmjoCCGEEEK6HBq6HgM/ORO2nxBCCCG9Cw1dj0FDRwghhPQfNHQ9Bg0dIYQQ0n/Q0PUYNHSEEEJI/0FD12PQ0BFCCCH9Bw1dj0FDRwghhPQfNHQ9Ri8YuuiAMrFXv0fs7SEldjCm34fqcfqVvdGIRKIom/Dw9Ua35ZcQQroVGroeY6WGLq2U7pT0ezoQBuJjaqaGYaqcbb/p6iSl04Zkrlv63Uk7f9CQglmVlDEtYhUlnqsuiu9iXdG8n8U1LN4fUfZORMUYUHxhrSieMqQqmo+DuWWlkZ9Sblb0eyIQ5ic2rIZ1LB4aFoZ1dU4i58uhYasl7BqblSmIKeX8nFh3TKmaliQuIN7i+uDNr78OtaLVeQkhhATpiKHLv6cCXB5XDttUrh6W9BevifH0pnocNBaF1CYV+DftOGWNEz+xc1E6yT3agF58TsPjYmqc7MV9YvzIScO6+HQ9fT9GSs/lSaefWamhyyhl/c8wMoEwINd1v8dIFD6ByTL1+3R9X6ewLqck+iUMkbNd+TIqqcuWXYdSJ9X8DIcbJX8eXaYV0yyI8YniC2tFXE1r4lRKvw8tK43llE35PMyrhIb5SSmVO0UxRnOh4asl7BqblSmoXpyUQtWS6FhK0h9ExbpdlOi5Rlx/flul5Wc5cQkhhHTI0BUmVYD/S1yN3PtS/npUzEujuv2R5K+g4f2u3RCbXzyi+xJS+Q8f2XHkP/zc3p7+4h07DTQmcnVYzP+ckPzf/1wqf79Tww/W0ygvPGofV8Wxur9aTtjbwPirH9Xz0o1s3bo1dP9KWK2hy05lpXytqOVelsiBOTusnEuK3KlK+ZYlmUtlyRxUw32jKOZd0bhqvE7kdJ8a8pweNxvTfSXJajyv8YI5KuZSGlaWdKEkxoATNnckIonZrH53RnbiSrWaF+OgUjsWozzGaWe0BnnB+ey4mmYpPyclTTNxtqAmQNPxmQCkV7mUEblrSvmGqXnENer1XkZ6k3ac/KmIfV2G4YyUFU5HJfllSZL6PXctp2kkA2nYaXuuKYNrql2va+jyp+dCy8Ild0Kv7VZZqndEiprG3D/PSOGaXveoU+4AeZvL43yv2COV+SpGJ518Job1+gsZ+/wpLXtjoDHSlxxDGO7l4jDcp8wl3a6l4W7HdTvsGmGsEhe0ZlzK2uUcP4374twr/yhaNReT5CWMrNby7smvvw5hH3QhpwYd9a2g9W1oSk1c7VivoZtGOV/JySvHnPuemRqS8pWCXWbxk9jn5Kd4Li7xU7lFdcI/YkgIIb1KRw3d9BdOIwGhti4+LqYaNuO9YclPIPwdyfzj+xr+p3YcTNfIv/ueVBFn74/qaUT/xc/r6Rb/9rtSgGF74+n6PhgP+S9valrBBnI98/nnn8vg4GBgP/YtLCx0zNStxtCpPVNDoY35p2mpauNestA4z0n21KRItSjZy1WZPpuV6dGolPNpKd+xJHtBG/jDKdvEmHfUxFyvSnIqZR9fNPX4gZRTH9SUZTXtxMGkmJfTkr2BUamoWJeSan7wXY2axsuNwgxhdM4Z3cIoTxmjPANOY+829JP4rsYvh/zq+SpX1Iwgvz5DF1XyZ6fFuqNGTo3R5KmszOm+6l01IjXTKJq3il49RpKQV5wj+kWlbnKjRiaQBuqvpfHc85t6/sJtXMe0XRaWGqPslaqkPtUwNYW5WwhrGC6QOqz5uJyVYlUkfSEr0dFpkRv6V8+NcG9esI2RymktLHyHybFuF9Qc6TmmtEz1HM40dUwyWoaWpSZTw5Ja3pYa3bmrCIsERg/d7ahu+68R4Th/We9P8owaqHOalqUGbbZh4lyce5xeNB3uza+/DuHel8+r+cdUrZowpG1q2pFjzuige5/t66wWZPprpKv5PxaRqqVlfq4ouVMJsUy9P7VRQbMwLRWtA8lzJTXCCa0PFYn66gMhhPQq98TQgWrmu46hmxxufP/opUXHFY/iuMO2icvtxfdxKf+HhOz99ffEePpPFsV16VZDB8PmN3WumQszeitlNYauoubFGHAacv/0m9vAuvHDjEFJTYwx4KzBg5FyzUlCv8N8DNVG2fCSgzEc/oJD+XykZj6cbaSbr+I8Tt1y81E8ifMjnnN+1+D5DR3wX4ttlNR8YFrXNYzW1ZK91gtmrwKzp+bONXSYhvanUTyhqKF1jSgMXlpNiaGmzF82WTUlZS3dsOls/5Qrrt81u1k1ZpW7etxo1jFMuPZaGVa+0PBaPGxjNNGC8T2B0Tct/yjK1xmdKhxr5CfsvrnbzaZcIxccQwlgmlyT5gXmrHBby2PASdefX+CtQ/78Au81Ie70hbJYt/J1M4c6ZWmdipxppFmajWj9wH2IB/JWvRjXutQoW0II6WU6aujm/uGgxPd+V/LHN4n8p59L6T/BdD1uT7dWYOieVqMWcpxrBAuf/qkeN677tHetlP7psETeXXxMtxo64DV198LMgU6toVuJocvdxHZjQb23gS2didnTeVg832wKEvgX/aNR9jbSbj7C1p758+gSZlRgnHB84ZOInW8YEhhJGMXcTRiEaEtD12rtm79s/GXrxZ9OWs2fayhhcNK1kTUYzbKl+2sjlWHGyr1+mKnC2YSYN0tqmix75FKjapyVGTpvmYad1x5pw+joWOP6/PkF3rTCysSbF8S1NM3SXc13rZOA/GkGcDn2dfmvzZ+35axPJISQbqejhs41YqBS/kgiHzlr28z/eVN9tG7RcR/hODWBmX31fWiMkm/9iZT+9ZNq7t6RMkzhT7p/ytXFNXX3wsyBtTR03m2AlxsSXzcaWPveTkSlejkjxTtoaJ3RLRf/Inp7ROamfj/ZGMVx84HG2hnNcUahkDZGBL15dAkzKhj9KlkVNYxZiV+sSgbrtO6U1RTk7G3EaWnozi0+vxd/WSzH0AFMAU9+WVk0GuU1mtj2m5f69Z8rS2lWr02Nc2wKRmhoUX5a3beVGDpMgVYsUyJHnHvm4s8v8Bs674gwsEcSbyNt1RCNi+lbnM+dSq7nrzYt64eGjhDSz9yzKVcvxb9C+EGZ/NfOCxAADRBG7iwYvb/aLYXUn0oR6+X2Nsxb5bQ26LVwd1+3GzoAU3cvzBy4Z4buWkZinvVRhSk1DXe08RxwFvDDGJj6n7sGKjOm987S9E4U7em18q28GGNO453TsLIgrcyilyKQhnd6FSarhDSMxksCrimAITPvVurnQ5qCac2aYfCm6075Rjxrv+wpYTWLeLED1+iaxypGmg47a+u8ZeJPI+z87vSo3zR508HUbAZTs2OOmYUxdNbXNX7OA9O5phqyIsrXwFu2uq1mxTWabhzvqJhtrDDlref3ml08Z9V8QvODbTV0et8QL3Iga099m/U1jNOh5dTK0OX1nN51b178+QXeOuROyTtpReprEt2XKtzzYg2daJ7ceFhzOXcFcZwp+xJGVguYEn6Fho4Q0tfcF0Nni/U/qhirOcv9/bikZ56U6t8/p8e8r8bMeVHCNX35f/e+xN97XDK//q7I1decqdqfNKZde8HQ3UvulaErnorYU6a5m2gg4/aaNYwgWTBEp4u2iamoibGqZWc67K4l0xfR0DqmonJx2t5nh6kRmfzCMQnelyK8i+jtc55Eg4zGuzEK5jUYmOqTWpoYkTIvN9bQ+V+2qHwxacedu+wYBnufns8ZKXRME6Z3nWPCR9b8abjTyO71JuyfWgm+eOBNB0YQxvOV2rq0FAyLWVSTpec96IxywQDLHTXCNXMD82NipNIzcuYvUxjTWG00zzZB1drUpP6vcq1azw+eRfNKWvOgYXpMqVBelFf/NTYzdDB/MFr+DwxUWH6Bvw6lYcLNkp1P/C+PEb3aGjzved3OQaxm8Kybeefa9Lor+jdyzDHgNHSEkH7mvhg6kHhaBffr72m8jxRnWjb7tcav/VYdGqjy6U0i/7kxdYufMInNLP6NORq61qzU0K0Wr4nZix+QDfkBXvwYcewgfow4+EIE7r+9iN4zvYoG2vt7dGHcyx84bgeMcu3Fv2KxzB8tXg7udLBrPL20KlP8kO9a/CsNrfIbxkryudwfZCaEkF6nI4ZuOdj/jNNe/HRJ+FusIL7nTyTyivPzJmR5rAdDFxa+FBjVSZ3Fsc5vw4H0Kf0+urL0eonpUUMmTzkvBnQD3ZZfQgjpBe67oSP3lrUydGjEp8+iEb93I1WEEEIICYeGrsdYK0NHCCGEkLWDhq7HoKEjhBBC+g8auh6Dho4QQgjpP2joegwaOkIIIaT/oKHrMWjoCCGEkP6Dho4QQgghpMuhoSOEEEII6XJo6AghhBBCuhwaOkIIIYSQLifU0I2Pjwf2EUIIIYSQ9UmooXvttddk48aNgf2EEEIIIWT9EWro8NMXw8PD8p3vfCcQRgghhBBC1hehhg688MILNhipo7EjhBBCCFm/NDV0ACN1IyMjsm/fPvtFCUIIIYQQsv5oaegIIYQQQsj6h4aOEEIIIaTLoaEjhBBCCOlyaOgIIYQQQrocGjpCCCGEkC6Hho4QQgghpMuhoSOEEEII6XJo6AghhBBCuhwaOkIIIYSQLoeGjhBCCCGky6GhI4QQQgjpcmjoCCGEEEK6HBo6QgghhJAuh4aOEEIIIaTLoaEjhBBCCOlyaOgIIYQQQrocGjpCCCGEkC6Hho6QdcADm5QX/yw0zMtDOzaI8djS8QghhPQXTQ3diDI/P6XM2yQ/n5edE0c0bGsgbr8w+aIhx+dTYmyJhYaHsXmD8vg2/a4NsW6jXKe0XA1jpB5npczs2yZTZxb0++5AWDtsULY9vlmMDYp+n3pZ01yYF+Op/YG464n5j0dk8Fczi/YNKjOfHRBjUPHsXw33Is1m7Dn7pDx48mP7+4PK7vkfyNjVv5Y9V0/KwzOTut+pPy+8Z8gT//Cpft9ob68F1pW0WHcsG1PJX6mIMTYXGncpkJZxthQath7ZqEy9PSjzszO2Lh46npINTyz/+VvOs7Z1o5536/bQsPsJnju3PfAypaxEz/z6s5as5r5u36rP4sZGu+i/X6vVaULapamhiymzC8dl+ytHZPtT22VkcLukfz8puz7Cw+s0Lv0ExCd9dETS6bRs/kUyNE4Yk88ps7P6fdDeRrke13I1jPZNYTMGVTi2vbhLv6/sfsCwzM6qWXgOhkHTUvM5+PJO/b52ZqEdFo7HZPAwyrSxz38tneBepBnG45sMGf6/DomxCWWv5u7vnpQXLv2tPDi6Q/5i9M9k36UJeeiPf22HPaTE/t2bYhyYWJTG/USuZ2Tusinxg3FJKJV8SgqmpWHTgbhLgbSM8+XQsPVI6pfb5cgfFmTr4Ig25FslObFTjp5RU7pheYZmOc/a8Tf1nh+HIQgPv1/AuKAt2K3Mzmq7UGsbtior0Yz79Xy1w2ruK/TIeBOa7mz779dqdZqQdlnS0HkfNpiTo2k0pCO2wTnwyrNy9OgRmfz4qGwcHK3HO/L6dnn2xwfk6Icx2fnLo/a+3ZENun1Apo4elcHXkaYjAIi7TeNOvbtbjmjYxsFx2f2Exv34kBzSdL29pJ3Y/+F+O41n9yCN+/eAjKgAJ88claNvjsuBlD7oRqMHhmvY/jpGLxdvjz6lZfjbIzKrJvDoUTWBLx6oG7pxvU6Unf8aIfRHICZ6jaOHp7Tn5xhBO91f7pTdz4/aZeOmP/ohzrtdjmoYjvGC8+G4nY9q7/MwznfUGWXdsE226/7kh6NqUGfl6G9n7fu0U/cdOIpjHGPRLC+IN6r3cnzQuf/7P9RzPeoccz9ox9C1Ksew8qino+J79MNxuy7uHtq/KE3U+f0vbrOvOVDnffcG+0YHN+r2pJ3WVk3Ljetn96cYdftb+/smZeyffiHGew3DtmOvIc/90wn9/qS9/cbZJ2XTWYzSBdO6H8CETRfM+va0YpoFMaYU/R4fMKSYS0n5WlkyhZIYw4l6XISV8nNS0rDE2YKmlbUN3dyrhhSu5cUYbYz05U9FZC4Ps/dKfZ/L//BRRP67/2WXDb77w+8V/sZ7qzL6utb9LTvs7Wb1zq+J3mfNfZ5iEX2OfZpw4EVD5n9/VGb+uGDXI+OpUXs0afL1QY07dd+fPdDMiHnr+7YXUd8dfQ7Lb5j+IO5aafxK7yt0d+GPM3L09/N6D4/q/doeuF9enfa2d2HXOI4yrGnqTi0n1Au3rWlXT0j/sixDd0Ar5tF0Sr+PyOx7g3JcK+3gy/tl8rVBSZ3R/U87BmL2sG7Pp2X8V8dl+8vjckiN4PzZWdk1cVxGBgclnZqU7b9EOk7c47Np2amN4PG3d8p8el6mPtMHfGhUZj8elUOfo6ez3TZU8/Nayd9GGttl4Q9HljVStlqOv7lBxn+3ICPGZkml9UF9+lA9DNfgNRju9o4tKlrvjkpyfl7G39b4T++yyzWt5Tp5bF6vcURmVNSm0BM0dtsiMq/Csh9hg7vssMk/zKvhcEQlrWEzWlbjakI2/0jDPKN/4y9v13OM2yTfU9REGo/GZFTzkD5zXIVhRnY+peV7fFxGfpOWzSoih/bs0DJNyvi7Sfs+eUcPW+XFvob0cTkAIdYw3KfJWdynhmm6lyxl6MLyfgh51/w1Kw+IKupYWk07wnYN7lQzfsA24+4zcPzNrVrn5+06f0TFfnZ+RsOceuC/NweeNmRmPiWDr03K/iEV+TMw9I7R8zP2bwbk4b9zDBoMXQyGbq9SC4eh2/0fYejQyzfkpWOGDPwjDOCf1+PcT/yGrnhiSEoWtufsumFpeO6aKcmplFQvZaRw2xJjYFomcWw1Xw+rXMmIWBqmhi6KsBtZiX5RsdOMYFvTcbe9wMD9t//by4u4X6Zu/sOdMvn7tGx8Ojhy4693tn79wXku/JrofdbwfV6fp6nfzcqg6t7xiV36/Gp9fXRcdmk9SiXGZSq1IKP6bMNgYDRpUg3E9sEReyTpyB9Rf++fqQszdJPPb9D6rnqgOr7/5UGZ/+Nx2bzHMUhh+d2s+fXrz1pq/HLuq1dPoLsLqSkZT6Rkxx7cL20ffPfLq9OoBzNaD3a+PiUHtJzSqguba0by6GtahtoWoAwRNp9K6nHOeZajJ6R/aXvKdaeS/t3+euOHtWHGRmftA0YuFn7b6OGg0u54v9HgInzj5sY6ieRbG+pD0t64EIp5CMWPnYrqFb1Dg4ZMqWAYG52e68aNSOv+TA1uVhZ+Ny4batc3/9GuUAMXth025ZrENW3Q8tLvOxC/Jo5HtDd+RA2DK87ueV1Rg5HZ8FZD4Pxpgx0QxT+oqfH0NjdvRjk5vcDJ5xvH+IXZW96t8uK/BqwLtE3uU46hv9egHNLpBXuti0tamV1wzBfyfuhz5N3p2UKQ059pj/Y1ZxSgWXnM7Ntcq5dOGBqYWVyXpolRlNQftV56jPzMxNba8xC8N8f3aAfoM02rNvq3cSPSbPTEvUz8gxq1Tz+qb8f+1YBE8ifFeOxJefgx7bXnf6aGDgbOMXTPjWPEDgbQGbG738BoWXfVi92xbENW0T9Dn+btsOIJRfcbhlMWXqNWPGksmpp1DZ475Vo+H5HsDdHvUcmOGlK5q2ZuNGuHecGonN/QYZ8/3r0Aden4u7tlQTuws2cWZP/HM7LhCecZ8T8ziOuO8vg10fus4XsK3z11CwZj54dIS+P5pvAWjo3Ktl9iDekGW1s3bLw/Ouji1w1oQxr6GHWeLzD1ygY5kHKewWb59aezlhq/1H091EJP/KN7/vvlN3TeegCz63SwNR1N021jwNHoBj0O+jK4LD0h/UtLQ7egIjOvPQY0mCll97toxJ0KhWmr5If77UWk6TPzsnBWK57H0HkNDh4ADFfP/j5pN7wL6fQiQ+fGbWUwkMbsxyOSPrsgyd9rT/ZtmL7787Dv3wLBnZHxX2hPTHtdM5iS8/SK/dfr3Q4zdO41Ydt7zWFrZbxp+YXDnzbKCD3JHXZ852GHgE7ueVZSv5uyyz6t99MdTWtV3q3y0uoavPHvFSgHb3kDfzminngNn1s/W5WH/z5606w/D9q7rqep9d4tI/+9sY31Zwds4zn1u5Rs+wka6/YM3cObDHnjf90tE//xlLxR/lsZOPorNXQIXz+Gzh2hw0ha7lhUTEvN1ycFNWWGZK7DlDXim4VpO35YGNJyDV16ACaupCYuJ5UvopK+CvMXHHlbS0PnZefWjfZozXGMsG/RvyHPjIu/bnmfIXw/Mo/vjWvwpuVP98DzG2RhfkZSet5DHycXLdm4H/ifd2wv6LbbVgC0Ce5z1Sy//nTWUuO9hN3XZnqC+Ms1dN564Mb1l4X/uOXoCelfljXl6oL1D+nf75ed2uvasNkxeN5K7a+0MxPbtXehvZDHYYA2LKrw3rj+Su03DgAjg6ND2ySdOlLvwd5rUu9ul+QfsA7OWZuWVOYxxVwb8vZfr3d72YbutyiXxoM6+/4OGXzPSWspQ4fenjvF48aZekXRXh4W+0Icvce0Ku9WeWl1DW7ce0k7hs6fd5dW5YH75u09e0dPcc3eUUk//nvjgjfeMAW1gCmoJtNHtqH7XcPQPfiiNmKbGg0ZDNzAP8LAOVOs/jV19xv/lCuwLqck8bVj2pxRtoYRg6ELC7OnVW84a+jq21fVYH9ZEUv3R86Ev/26VlOuWAu27amtWgcasw3oINizE3uO26MozeqdXyO8z5D/eQIYLR49hrQ0zKOXXgbVeNjTs3hbdst4IPxe4X/e69vPO9vN8Oe3mW7cb41f8r620BPQKUM3/wc1abXZKfs4z+yBu68dPSH9y4oMnf8BHtFKtnDmaFND520o8fDgbdHlGroDQ4aMH8WwvfN6OKa7XMG7l9jm9fNDi6YTAPLtTrdhPeH4b/X7hm2yE2Uxe6R+TfVphA1Or9Qv3t5rHt+i389qD7ZWrrFH9SE/o3FrxrGVocMaluM4z6ONRgF4xQgilXr3WT0G246hg4hseGXKjuvNW6u8tLoG97z3kqUMHfI+g7w/4SwcRu/2+HEVy8HxluWBqZXjZ7QBqZXhkR9v0GdAtzVNd8p520Rj6uj4e2pw33buh//eTO3ZJrveh+A6cecTu+vG3M+ev3tMNp2DQXO2x//tTt121tQ9tMmQsX/YXX/LFez+ndbL/915iWIt8Bu65LDuM4u2AcNUqXm3IpFjzgsSmTE1e5YathPFQFhOw0QqdUMHMC1rmpYU7yB9Z51tGDBwGJUD92v9HLRgQbXArQPYN/7EBkml9T4/fSjwzOzHLMZZjavmxa+J3mcI37Gudmttyh71deEPWudqDTaM4n5Mt6n2bdPt5MejsuHHzjl2a9xZ/AzSYGO69l4T9rxjinh3AubL6YhMvblVdmv936bbzfLr15+11Pil7mszPcE2ppS32sc66XnvF7bbMXT4jnYEAx944WK7tiPzx8br2rQcPSH9y4oMHcAC8XTaGX4+/se0LHymcZsYOpiB9HxtukobzJnjx5dt6NwhZwzrY6rsuKZlPH3ve6V4GN03e737Dz1de0Fkw4iM6PUtzE7JwtkFO1+zicn6NUEs5n87LvNpvd7XppY0Q1NRlOusU1bptOyorT1BWDNDN6gP/IIK48LCwiIQF+UGQ2qXm5Z98liqLi5II/mL7ZI+Oy8jKsb+vDXLy1LXcK9ZytBh25t3/NTMyMeIv7VledgGT00a4qOO7f/9vMweb6SJ+5zW++wei5E+41GnXvjvjT/uJN6M3hI+LfjCAYzAwdA5I3CPv2DIvn/6lYz9+7+VfeWT8ngW5q7xY8Lj/3aHPFD7zbq1AIbO+8F6urkCXl5w6kPpTEzkrun8Vt1dS6YvIswxXeXzCHN+w66kxs283FhDB5JI/05Rkpcw3Ro891qzP4LpQyxFWbDryLw+88/uw313nlH/M/PsPqcRXsrQzej3+WOORnrrK+Lu0jqLTmISGvLU/sV1W+vXrvdhfO/fb7mFPe9+fcbC/w3PO2tqW+XXqz9rpfFgOffVf3/Q8Vs4Oyv7f6f5NbYH7le7hg5TzsnDu/Ucs5KcVX2ZmKwftxw9If1LU0PXDhga3/oUplyXXueAxnI7fkTS8wOMK2Hb5g3r4kc27yVhUwCrBb8h5U6PL4d7kZf7Bepcsx8ubVUeS/2QK+pgu2XZTrnjzdY9eLM1+uai/Q8+q399/yoEfrPuJ//+kBjfe23R/vXGkLL3oBq8gWggLDqgTOzV78GRNRg6Uw0d1uP5w9YTuK/Nfn9tuc+M19yhbrWjkev1uWz27Cwnv2up8a3uays96QQoI8PzgkvYlOtKdZz0B6sydISQzvDCrw35i3/1G/3ujAg04yenHpNN84gXHt7N5E7HxbxWkNxNrLNzRvv6Af+IN+lPZn75rD3bNfL6ATnw+oikZ49yWpUsCxo6Qsi6IHtqUlLnsmIMxEPDexUsy9j1NqbP1mZUiqwPMAI4jh8ur/148OBrmLJeevaLEBcaOkIIIYSQLoeGjhBCCCGky6GhI4QQQgjpcmjoCCGEEEK6HBo6QgghhJAuh4aOEEIIIaTLoaEjhBBCCOlyaOgIIYQQQrocGjpCSNvIO9vWLWH5JYSQfoGGjhBCCCGky6GhI4QQQgjpcmjoCCGEEEK6HBo6QgghhJAuh4aOEEIIIaTLoaEjhBBCCOlyaOgIIYQQQrocGjpCCCGEkC6Hho4QQgghpMuhoSOEEEII6XJo6AghhBBCuhwaOkIIIYSQLoeGjhBCCCGky6GhI4QQQgjpcjpi6AYHB2XPnj2yf/9+G3zHvrC4vcJqrzmixCai+n0oEEYa/I8vfCz//b7/Q/6bD/5vG3zHvrC4vUZsWOtJdG9oGFn/9Kou9up1rQaWCVkPrMrQPfzww3bFfemll+TRRx+VBx54wAbfsQ9hiBN2bLfSiWvOjBoiVlksSyRyvhwa536RUCo382JMKb4wP/ExNZ/DsdCwTvPPNj9jm7f/+qP/JxSEIU7Ysb1ANT8t1l2RQtXS7elA+HohP6XcrOj3RCDsfrOavFhX0mKcLYWGLZde1cVOXFercq58uVdKqomGMRcIW690okzQuS+cTYh1W9uEO5aUbpkyNJUNjbtalqrnCe1EVq9kNR+mmJqXuby2TwPxenjlYkLSV6BJwWPJ2rMqQ4fK+v3vfz80DCAMccLCupVOXHP5vCG5mxAujNCFx7lfTCumWRDjE8UX5keuZ8S4Twa0lZlzQZywY7sd3BML9+RkMTR8PVH4RDFN/b72pnM1eelk3e5VXezEdbUqZ5iJ+MmUfo8EwtYrqy0TmDmzMC1lUyRxKifxg3EpnUtqZ86U6LnOa22r8s+Mqe5YZclcqmo+kpKaiot1Iy/5Ktoq55lCXjPXsR08nqw9KzZ0GE5GDyQszAviNBt6TiqZSznJTiWkfK0ouUta0caS9fD4gCHFXErDtJIVtFcx3Oh5F3NJSRzJSPlSVooaHjuRq4fhIcmdjNtpFq6UtbejlbgWtho6cc25E/rQ3CpL9Y7Y+TYOZlrmt3gubj/ouM5krhwos7l8SYa0B1W8gO2yJC7ABLSexoVwuuU2p+XmNXQxpXAhqWmV7PsROQCB1fha3nKnKuVblp4fghC3852fdfLRyXLGlKrXuM3+n9/K/2v9fzb47g1rNv2aelWv42pe65P2SHV7GnXpitaRD8LzWNLymzzvGChcV/liSuLnnO0owr+ek1c+1fuQn5PIKWc0cxLxLmt6tboHI1bQ3u1cMi35axpnwCm7zGG9v1pGhuHU7awajzTqsxGcTo0rlUsZERX08g3TvufYj3tWKmh913uWymlatV6zWx/ys9N6PzVNrU/eZyOv9yVyYE7ry5B9n7K4d57nKAzca/ea/NtIe+6Ypn0lb5eP30RlcJ4rBbtuxU/iGKdxRj2Oaz0uafmVUE/Por41Gu5mxy31LLvXhbpamE0uyksr/UCYNy9yPdsRQ9cJjQD+5x775o5EdDvv5Pkcym9I5rSer7SuLYdOXRcMRUzLuV72tetAWOYg6jLyHre/o57nT+Pel5xrGGjcv7CywH5/ueG5nv4C1+8ch2e2hGe2AyNgnSiT7Kg+73crqlON5w1UvozVjNRkvSyg8Tm9XtzbZjpdbx+OTNrPhfv8u+mi/BMXynb5oOzip6FlzrNmXVITdxmjb43nEuUl1bxEv8DINw3demfFhg69Dgwrh4V5QZxmPZSMYt0tSx4N11RKzCsZFWSnN4AKa2nly11zwqrayBVua2UbcMQaFbNiWvrw6kOtPRpT/3NNSfl8THs8CMvpA65hVrWtEail6MQ1p1Rwq5fVTOnDmr6gojKqvbOQ/EaOOfnFA1S1LMnmyzJ5Klsvs9y1qqQ/TenDVpCqHpvKVyR/Sk2XVZHImYaA+ZnThsyySvrQV7UHpufSHph5V8tVywfGxbqmhkBNW/xTbbRVMEp6bmNADcGpST2XGoLLVZk+CzGMivl1o2dZOJPQfGo5H3bMzmrwjs7BwPk/XlPXapQO+Zu76ggUvmeu4Xv4qGjptDaMtoDGZU635a4KZW0UNaNlVtEyN0azUr2o4VcdQcur0Gqh1ERQBVYbz+IdU02Z3gcVQeO0cx9wjKUx3RE33NPkJecYP7gH+bPTYt0p1+85zKh1u9C4Z9dyKqo4PlavD8WbptYnbRS0PuHZKFctSep9qRbSYmrnIX9Dj9X6gh532s5/Q7T9+Hvx3m33uct+WZTosfQiQ1c4FtE6oM+rGr3cqYRYZrk+yoBrrmhdSp4raT1N2PU0WkvTexzCLITVjmv1bJRO4zikWTvOrCytHxrmNlJuWEV1B+sfOmHoOqERwP/co5xNNfkpNSlp7cxZ+txPXqzaHYCV1rXl0KnrcusPriPzqV7HraJM601DfVxUl/S7pXUic6Vi13nUW8dIRJuWBdL3l1tRO9DFO7h+x+DiWDyj7vZq6ESZYLYme6P18+iWRV41P6VtRlRNXjOdhh6Yqgcl1YMEwrRDU9GyMsYcA2trgz4jyTPaecJIIDR7ttSYqak9W14qX6oGXkMenfKloVu/rNjQYeEn1gqEhXlBHMQNC0Plq4iK6IBT2dCQVrUhNQ7mAw8iGjq5oZW51lNAxYxccL7b21fnJK4PNXoo1TsqZh5jUc3F6o3waujENQM8xO5DgfxayO8JR4BB5Yto7SFX06QPkCN4Tpi/zPzTt258jGzEJ6L2ED6IKejF2g+nfW5HQNJqFkyUec3wRof1PANOWv7pWG/DbsfVY41hJy7Oh/vTiUYRLz+4hg2jcv4P9rnhiBuWBrCNkOY/d7YoZTUJxqgzuoO1gG657EW56PWiHCooh1E1DifVLKhhKqvxNQYyttlzyzivhrx4B42HCqWWZemqqY0QtrUh0cbUNXfV/KT9HfXWvKnG6qqKpt4XNMAWGmBtcJvdI3+5e+sDtr11xl8fgPfZqIfrdWHb22jipQv33MB9AcN/n73b/ufOTS+q6Vl6/72didJsRE0yyiMeqMeuMfY/1wCjL2iMWz0bUS0L0XL1rkEtnVFTUDN00A/n3JN2GAye3NIyUOOD+1tQU4F4CHMNXifqbqc0wl9eqCtD0UZnpHIhUteQduqae9xK6dR1of7M2WuwHP3JjaqGaQ3Fc+atm97viIfOU+kunrO5lmXhL7f68oVaHcIoVCcMLuhEmfjziw5/Vk0bgHlD/fWXBWim03jeq3jePe2f95r9z697/jAdcUEb43Z2EZ+Gbv2y5oaujEpkOA2tt2J6TY+Lt/L7Gx1vxRRNE4tLXdD77kQl7MQ1A++1+csAeB9g/wPvj+8vJzc+XnawbubrZVBSDCMdSM9vHtLamFauFPQYU4vNEm0fmxq65Jie/1JOBbNqx5W7GrcDjWKnDB2AqdAKIDGPiGFhsFsuFZTLVN4xpBA7zT/KKPZlxR7hgQGwLqckqts41i2viJYJwqe1sazqdlQ7IZY2pm7j6d7DzICaiztl3U6pKJragMV1G2mlmt4j/z3x3zPg3ouw+uO9T/5wb90qndXz184NEheda/TfZ++2P8xNb1rT04ziUaunhw3NtsYL1mO33vqv1UurZwPn8x/nvTakj5dKvNcnGInWvIdpi/+6VkqnNMJfXjCkmO42bznahmtxr6Gduuams1I6dV0oZ6+h8N5/7/3zfkc8b11oVRZhz4preMM6+6uhE2XS6GA721iSgyUCVUWvTvctNrpuvGY6jXJCHfDec29999dzt7xS+I6yCXkO/YbZm1+yvljzKVevYHsfblRC/1A0KlPia+dhbVYxkWaznsZq6cQ1A+8DFpbfwjHlNq4zERAof5n5Gyd/fD/+cG+ZY4TUtEqSwCjLcCzQ2HrL3O7938pJMldpOrKzUjo15QqTBjNmallmb0AcW7+ha4/+XLWkilENNWjl8xHJaUMAw4ZtNx56vNmLVTVgGI2as8s0p+VQsnDtznoVt/EofZG3p31RlhVNp/xlrjYNHDy/i7/c/ffMNp8YDT23OkPnxvfjv4/ebX+Ym960pmfnOWTKBvivwa23MLXm7fDjWj0b03g2fOezw2rXFqYfLv6wenl2oO52SiP85VXNxSV305LoBGYsIvXyQ9hq6lq7dOq6UH8wk+Juw0jYJkufr3YNXauy8JcbcEfViydgdFEezqjtaulEmeA6S5gSHXDW+nr3O1PDqUBZtNLpMD3wTpn6n1+3vNwO7WTeuTfF2VekcEv3aydBrqbr+xHf296Q9cWavhThr3zeionFouZdNQs1wXbfwHGHzptVTHcKJ64NLB52VNTy12oELzTirpROXDPwCpCbX0eEIvW1P+4QuV+g/GXmTSssvh9MRZW1R2eMOccXT0a0d6fbNTHwNqB57QWaog+ya+iuae845zzY9XtVuz/pYQ3HFGUHGsVOvBQBsDarZJkyOTBnTz1hMXZYPBdM/4jWOS0+3VaTpttYz+VvBDBl54wKYH/E3kYvOW03ng0DATOJUSJ3WtDe1nit1jgCv6Hz3zNcl70uZtRZU+kXcO+z4Q/3Nw5h4D4nLyHOkGQPROwycdPzP3fe9GB0nek0Z4F66XxM5gp4Dl8J1EtvvcVx7ppA14Sj/i/1bIQd5947d7F55IAz1Yzp9/J1Lc+pbEBbcqotojW/E3W3UxrhLy/v9pBiaSPrfe5XWtfapVPXhfpj36PaWujKhcbif29d8tdTbz1uVRZh+mfXo5uYSdD2oTbS3gk6USZunc6hw1l7aScV1WdOOznTtcGLsLJoptMIwwyVOyOBeo+0vEuVvPXcW144D9Ymxk9jOYimqWGmiaUnmrfachXs89Y7sr5YsaED6HWs5pVtf2Pjb8hKZ2LamKjdwJSJNqDT9pSQ02C2qphpCLRZUkHTuq3/K0FAam87rpbVXjPwmzB/fvPa+3QFzy9Q/jJbrqFDw1dVg+tOR+VuWWKiodMy94dhYb1papm7xuIUGneztp4srueO2ffFjqsPvtzSfHWgUQTeUbpmtBqdc18kcBfXQ6zKau5cUxSGK/zuOjh3wbm/PDGqIHeK9cbBfYnC/5uCMHoVmOXa+jWsxSvrLcZ6IW88P/7nAPelchH3xSlrU+9PrNZQ++sDWK2hy6thxEsLmEIvaGMrNzQftfRaGTq7zDGFrFUB+azo38gxZ2TTXy+99dZ7HP6HF4aMMWeks9WzYTdW1do0r/6voJ2Ngom8OeFe/YABT1/B+Z1RWtRd7ENYSeuueVnz2aG62wmNCDz3KAf8diXuv15r9Xp50XO/0rq2HDpxXbahU5OPxfj+OuKtS/566q3Hrcqimf5h9F1rtN0J8oethk6USULrsXktq7nTDyqzfrx11V8WrXQa5YQ1dOa1xnS0N61W7SYozOpzoc8+0sax0IB4rRPvxvd/vPWQrC2rMnSd+FHFpUAPbO9BrYy1BaDLYa/2dDr9S/v38pqxWP9+/csAWBA/NNb4wUh/WHQCYcHpKj94MSJ2EHlu/VMpy+Wf9fkPC4dxr8q607SqW63A89rsuFbPRqsfvEbjtxf/IkuIfqA8oxNIc+l6vhzulUbgWvASzf36cW8/nbyu1Zb9cssChs4xHuv3XqOti6Gta/P5DtNpr/HF87TSuuIeC/Ncua3pfeB0FMj6ZlWGzgXDyai4WPgJ8L3VsHsv0I/XvBZgShXmDS8/AHxvNc1KyHqhVzWim64L6wuLhYw9IhjpwNu+zVgvZRI2Yk/6h44YOkIIIWS9MT2KnwFJy9BUZ5bcrHfwEzypC3jDtTMvfpDugoaOEEIIIaTLoaEjhBBCCOlyaOgIIYQQQrocGjpCCCGEkC6Hho4QQgghpMuhoSOEEEII6XJo6AghhBBCuhwaOkIIIYSQLoeGjhBCCCGky6GhI4QQQgjpcmjoCCGEEEK6HBo6QgghhJAuh4aOEEIIIaTLaWroHnnkEUIIIYQQ0gW0NHRh+9cz3ZhnQgi5X1AjCeldaOgIIaRPoEYS0rvQ0BFCSJ9AjSSkd6GhI4SQPoEaSUjvQkNHCCF9AjWSkN6Fho4QQvoEaiQhvQsNHSGE9AnUSEJ6Fxo6QgjpE6iRhPQuNHSEENInUCMJ6V1o6AghpE+gRhLSu9DQEUJIn0CNJKR3oaEjhJA+gRpJSO/Sd4buwKAh8/MzMvirmfq+yaGN9r7dH6V0e2N9PyGE9BLtaOTsh7skOT8vxlP7F+1P7tsus9j/8pFF+724+mpEp0LDCSH3jr4zdJPPGbKwMCuDh2ed7ec32NuTf1gQY8OOQHxCCOkV2tHIo69BI9Oy/Zfo4Dr7tisLqQNyNA2dHFkU34urr8abx0PDCSH3jr42dLFH9fuZ43L8jIrUo7F6nMGNhkwdHpWjR4/KzgntjW7YJqOPq9AdnZTtrzd6p0fe3C6HNI7x8O76PkIIWa+0o5EjykL6qBxIqS4a2+19+7dAN2dk5Ddpe9urkaOHp8TYOGjv9xq60aegmaqXLx6ww3YqR48eqGvoBmX/i9vsOJMfH5WNg6P2fkLIyuhbQxd7f1YW/jApswsLsuH5yXr4KIRLTV5qfkGSR5OyMJ+SQ39YUDEalIU/HpH9n0HkNsugxl2YnVwkeoQQsp5pV9fnP9olKdVG4ynHjM3s2yxpbL+mBq6mkTN/hEYe1e+ORhqqkV5D5x+tiykLC8frsyOz76mmappHfzcrs787aqe/eQ9H9ghZKX1r6CAkwDFoW+vhqV9ulxkI16PO+hHET0OUVMhmDw9KEmFbxuXQ00gnJZv3NdbiEULIeqZdXT/yIvRt3p523azbC5/tlyPayTWMXbJ1oyG7hrQT++hOO27qV9vtjrExeKhtQ+eOAu76aF7DNtijdQvHY+wgE7IK+tbQQYBSv9Hepf71rhWBqKCnOD+fVuYlrbhxXBO3QQUKxs81d970CSFkvdKurmN6FDMSMFj7t2xX3ZuRnR/CfBmyVTn67m6Zn51RU5a29dE2dM9Ntm3o3LD5M9DaeRukZa/RM5qv0SOENKdvDd2O92dtYULP0zvtmv7NiBxVkdn+1Kiyvc6GzduchcGfH5L9xxfs48Z/B/HZvCh9QghZryxH1+c/3GlPu84cnpR5GLYXnbVvMxPb7e2dbx+XzY9rx/atje0Zug3YTtqG7sBT+J6SHe/OLNLZrQp/aYCQldHXL0Vg234xIp2sv+V69LUNkl5Iy45fzsjmjZvl+NvPyuyZxqv6qXe3S1p7kXgLDCN13rQJIWQ9sxxdd7USI3CTs+i8Oi8+YO0blqVseOKA/XJE+rMDoYbONW1Tqq27Xh6V+WP77bSgve5bs1Oa7sanR2TX1o2STk3K+G8xCritngdCSPv0vaEDx9/cqvvUxL0/KxuMDTLzyx267Uy1Yvp194eYknXW2bkitdTr+4QQst5Yjq67MxKuCXP3253g+eP2fozUzRw/HmrosC4u9R601FmvPPleSv86I3RIZwTpzE7Vw4/Pq0mMLP7tO0JI+/SdoWuXjcrWp2DiFg//O9MGx2XkKF7f37AojBBC1jOd1MhtW1UbN6x+ycm2zRvsJS1hYYSQ9qGhWwZ2bzOdrvVGD4XGIYSQ9Uo36johpD1o6NoEI3bjrw3K6NvjsuEJ53V9QgjpJmjoCOldaOgIIaRPoEYS0rvQ0BFCSJ9AjSSkd6GhI4SQPoEaSUjvQkNHCCF9AjWSkN6Fho4QQvoEaiQhvQsNHSGE9AnUSEJ6Fxo6QgjpE6iRhPQuNHSEENInUCMJ6V1aGjpCCCGEELL+4QgdIYT0CdRIQnoXGjpCCOkTqJGE9C40dIQQ0idQIwnpXWjoCCGkT6BGEtK70NARQkifQI0kpHehoSOEkD6BGklI70JDRwghfQI1kpDeZc0M3ZYtW+Stt96Sd955RyYmJtoCcXEMjg1Lk2JFCCHNoUYS0rusiaGDIYM5++qrr+Tbb7+Vdj+Ii2NwbJipo1gRQkhzqJGE9C5rYugwygZjttIPjkUa/nQpVoQQ0hxqJCG9y5oYOoywLWdkzv/BsUjDny7FihBCmtMLGrl3bEiMgWhoGOltYsOGRKJ7Q8PIGhk6rIdb7uf8+fNy8+bN2pbYafjT7USe81PKzYrsNRIiN3Myd8UKjdcu0QFlAhUwEghz2au0OpebJ0PzFBZOCCHt0M2GblqRal4sS2T666q9z7qSFuuOVaekGEZ60XEuiGucLdnfI0rpQkIssyqmHjOXL+v+WD2eN82l0l0NlYsJSVyEtoeHt0N+NibW7bKdz/x1U4yxudB4rSieMqQqeo0Hc5LW7dIdlNPyrzeh7V31SlbzYkrVtCRxAek02r5WeY0p5fycfSzuSeIC7oma91p4NT8t1l2RQhX3YnrJc3lJKJWbeTGm8nZ7at2p2Hnwstr7sB7oCkM3MjJiH4e/7udeGbrCJ4qpFU0rTGpqSCIHUoE4y8GbXli4S6tztZsGIYS0opsNHXSwqI23YTg6GVXQEY6fL0v8YNwmpnhNgBe5nhFD4+J76XTENmnRDzKSHIuKdSOnJhFpGxIfG6qnB0rn4npemIhkPa1OYRamZbrgnHcloEyqlimxU3mJDQ9peinJ3RINQzmEHxNGXM1R4hTKdUgyul3W/wxDy8sXrxW4H9a1jGSumjIUnZTsB1qulqYz65jopfJqfj0txdsisQ/Skv4gJnK7KJMXHeMOM2+ZBTFOFts6lx8cb+L4Twr2IEv84N76/Z1W5FZeol/Q0K2I5Rg618yBTho6VOBiLiXla2XJFLQSDDujX17zVNQHOX7OqUAgo6arfKUgRT0mfjKn+5zegB3vVE5K2rsoaVjirFYcDcsc1Ep0oyim9irK17SynMAxwbwA/7myONe1ouQulaUwm6ShI4SsmnY1EqNXk+cdPcJoVvliqq5PaExLX8+J8amjZ15djHk0rpnGtgqDZkL3sN8loxqY0UbXr6XeRtpN1wvO4dVkuZ6tGzr/yFhpVjX3BkzbK/V9wDaNN7IS+9KJi1GkwoWk5qFka7PbCU8quWu4dsf0uduv6DZGnaKnG3lMab7y1/JivDq3yNANKYVziXraxljDQM4diUj5Ut65lnNIyzGt6U9ekclTel21eFlNuyzIqxpV3c5cykl+VtsyTdM4mLHvZe5kXM9RlMKVsgxNOabNm3/X0GWnsna8vMaLHGiMpDW7d3ElfV7LY7TRTnmvr1Ve/YYNFI45bXFc273KpYzIXVPKN0xJ5rT91fBW5wKJYU3/Utaul3NaX5rVleIJBYZ9INW0fLqFdW3ompk5fFZj6PBQWtpby13TyjGVEvNKRgraM4Bh8ho6bwUpHIvYvYukilruFIbqyxI954gD4lUsS8NKktcwsSoSVeGYHtUKlU9LWStL9oI+wIedhz8M77nQe6za6enDZJ+ronly8uc/jhBC2qVtQ3daTUfVGT2Z0225qybjJrajktGGuHJXtW80K/nDGHWpSuJMQXKfxsVS7TNOFAMaW9UGuXDbmSprFQbNzF5IK1kbuV2ydXF6VA2NT0thPKpqCUpfl6R8XQ0ITFDNXEwiz9V8/RwV1XjM1bqGzk81Pxm65KXe2KvRcUeFircsiX+akbIauxLSHJgLjGp5tytfRNUsOmWHsPL5SH3bq/vVi5NSQNpTaankkvXzok0y1cyk1Mikp7Q9qBbqI1deYAgruUTNmOp90m1L71PxpinpC2rW1PyUz8ekjOlJDECcS9rpwuR484vvapulgLL7NG3fH/s6jbmW986fn7kDEW271PBpffCH+fNaN+fHGoYLhq4sppZ7RvJnp8W6o/c4X15kCl3855rTOmpZJTW0VUlN6XXeyOu16rl8hs417O7oXLPy8R6znllzQ4e1cTBr3vVx+LQyc/isxtB5H1Jso5Km9eahwocZOvtB1pseOaMVppZGaTaigoc0tOfoeShB9aKK4FU8sJqWJz03PAzvuTCNEPEIT+lMhIaOELJq2tXItG3aVO9Gc1I8qRp03ZKyNpDGgDbuavZcc1c+p98xbTbgTJsNDWPWImJrrKOPk/Z+aKzcUlNxutQyzD0/QONqm4UBR/f8Wjr3qubrWl5SFwraaCfEvJZzOuYaH3kuaMPsxnUNXpihQ2e9rJ11Y2zxaIydL9Vi71RcdFj/1l7I8I4QtjJ0XgPsNxDetkPULMZzMGoRe6QoMuyMwuH7ULTxEkjlQkQy1532xQXp4FPWdiLygWN4kIcK8jDgbGMUzrqjhsdjsDInYhI9lg4YOu9x3uts597heBhCS/8/Z691XPwCS1hegXUpKTkYPDXlGF3DNHhZ4yFPzUZjm52r8qUaWruMnFk01GcT9dl3fPGk1tWaF2hVPt5j1jNrbuieeeYZex/+uqbOa+YOHz5s7/N/VmPoyuf1RvkeCJcwQ4fKpBvo4NUXUGLDNVnehxJ401+uoQuruO2mQQghrWhXI2EisOYMHUtoE6YcMTKDhtu6nJJobQpyGiMhN/P2YvXSTVPip9U0aSMKDcQ+76JzwQiJptcqzD1/mMlaSgfrpk3zGKbx3jV0LjiPebcqEc/IkIu3sXf3pY9EpHJF24I7pjYBlmgTsKShs8vyatous+yomlCMYg44JsHbduQ1L5jdUR8q+SuV+jQnTFMxlxTzlvMyAcoqrP3CqFfxzKRTbqOOMWuWJ/+x3jB/PG+b1M69c5mORhatTfTizyv24SUH81rWbt8xtZ47q/fRMyUbZuhc/Ofyt8lhx/sNe6vy6RbW3NB98803dVMHvN+bmTl8VmXotFfpDHkH34hpZujsyhDy0AN/5emIofMNPdPQEUJWy3J03Z4qvGpJFSbpYF51LSK5y7oNfdJtb1z8nASWosidst1AQgObaWyrMOBOl7lLWlz8Wur/BQHbON3I1k2j9xzeMDe9zJhqrVWW2GxjRMYlbHQOU8+m5iuBmZrh2CKTsJR5ckc1K19MSlrL1M2Xv+0AibEhKedSamU03mhWqrm4HmvptcJYOmbZbV/wAof3ZzzqI2ZadmF58o68efHG9R/nvc5W9w73I3YQeWm8lIK1ic6UbKJlXnF/9k5E66OfAPc7X0XZxAOGbKlztWPo/Ia9Vfl0C+tiDd3MzMwiIwewr9VnNYYOvSTzrvaAaqYppw92Rbfx8IQZOsTBcLCzxsKpQKXzMZkr4GF/pbWhm9K4eDNroPWr5P5zZa7jXDG7oqNHrEG6TUNHCFk5y9H1nOqkqC662oNtrJHzTrmVzu6VlK2DzjShdWVOEl+btsZCUyMHtMHW/RjJK19XvZ3KtgxDI4+RQEcLF5sGv6HLH0Q6VU3HaYAx2lbBmifV8TCNVztVN3Rp3caaq1jIyBIIG53zN/j5IxExpVo3dKaGDZ0o2uVQuRDXLZSbY4ownWfeKeo5NX+ehf+u7uOnqypX0hI56eQXptbET4dMFRa1DRjZsq6m6+0LlvfYBqs25Z09EJEq2rLD+YAxc6d73bL1mlZvXP9xXjPU6t7ZhvduyS4DhCGvprZlaXv5kearRV5tw63X5eYNL15Y17OL3nL1GrKlzoWp4TLW/dVGeHE/TRjk2vFhhr1V+bhx1jvr5qUIr6nDurqlPqsxdKB0JqZipbcYw8Z3LUnYUwiRpoauPrVgOcPNFf0bOeb0UlsZOkwDYP0dhqmN08GeoIv/XFKtTfFiajdX1TzhAaOhI4SsnOVopLueN3UZxsZ5ixFTml6tgzESNUZ1rYLZG3Ve/vJqLKbl0ldwnPNbb83CMHvi/+jpNGzx+makARNQ/jJhH490ME0X86xzxho8N6xkavhl1euagcN6Nf/HPU+zhhznq37t/BYa0izrtZqmxlGTYJu4i1gbhuvRtL7G6xo43jEUAB314h2co2ESvbq/qE3SskwVnDVhGEkUy5luNXV/9Xq53r5gmtK6nqvnCWUQt39rLxIwZsB7v/A/e83aQKJtQ+fPp/++FmcRVnXS17D8TU1/2LneVnkN5M2XbugIW4tz+e9V7paeD8azdnyYYQfNyscbZz2zbgwdPph+Be18VmvoAFz93oNaYZbxq+OYWhgaW95v/LhAkLS2OBfg+YStPwAYosbQflgYIYQsl3ul6/7pNBc0rP6ptHbClgN0PDoBnQyfBlzqh92XC9qA6ATagM6l6dKsTUJZxVFWTdqD5V6n/35h9LWE0TKj9UySy1L3rlXbtVRe90Z1/zLavVbnWml73aw+r3fWxNDxn/4ihJD7DzWS+ElhevpGvrY2bnXmmqwta2Lo+I/zE0LI/YcaSfzgt//SF9Li/eFn0p2siaHbsmWLPcIGY7ackTrExTE4Fmn406VYEUJIc6iRhPQua2LoAAwZRtlgzrAerh0QF8eEmTlAsSKEkOZQIwnpXdbM0N0LKFaEENIcaiQhvQsNHSGE9AnUSEJ6Fxo6QgjpE6iRhPQuNHSEENInUCMJ6V1o6AghpE+gRhLSu9DQEUJIn0CNJKR3oaEjhJA+gRpJSO/S0tARQgghhJD1D0foCCGkT6BGEtK70NARQkifQI0kpHehoSOEkD6BGklI70JDRwghfQI1kpDehYaOEEL6BGokIb0LDR0hhPQJ1EhCehcaOkII6ROokYT0Lmtm6LZs2SJvvfWWvPPOOzIxMdEWiItjcGxYmhQrQghpDjWSkN5lTQwdDBnM2VdffSXffvuttPtBXByDY8NMHcWKEEKa065GPr7tsQBh8bY+9VSAsHjt8sPvPxvgycj3AoQduxoe27opwOjozwIMfu/7AXb88IcBoqNvBnhq6/YAW777YICXXvtZgLA8P/XEnwd4wHgowI9+PBzg8ce2BQg7RxjbHns8QFi8P3vogQCDO4YC/Oy1lwM880wkwI927gqw56cvB9iwcXOAsPz1Imti6DDKBmO20g+ORRr+dGnoCCGkOTR04dDQ0dD1Amti6DDCtpyROf8HxyINf7o0dIQQ0hwaunBo6GjoeoE1MXRYD7fcz/nz5+XmzZu1LbHT8KfbiTznp5SbFdlrJERu5mTuihUar12iA8rEXv0eCYStF7ohj4SQ1UNDFw4NHQ1dL9AVhm5kZMQ+Dn/dz70ydIVPFNPU79OSmhqSyIFUIM5y8KYXFr4e6IY8EkJWDw1dODR0NHS9wLo3dK6ZA500dPEBQ4q5lJSvlSVTKIkxnLD3e81N8Vxc4ueK9WMyavDKVwpS1GPiJ3O6zxnRsuOdykkpPyclDUucLdhhmYOGmDeKYt4VPU9FjBM4JpgX4M1PGvkZcPIDmp23VVgxl5S5YxkNy9evISzucvJICOlu2tXIY/sPBfjlh78JkDrxaYCPP/1dgA/2xQP8T5/PBfj5xHsBpj/cF+D94ycC7HzjzQCf/fH3Ad5971cB/vD5+wH27/1FgETyZIDjU+8H+OyzTwN8dPCzAJ9/+tcBPvibzwMc+tU7AeZmjgX44J2/CfDyvv0BTvzm/SCffhrgw6mPAowf/lWAv8v8iwC//vXhANO/nQ3wi/G3AvzxX2YCTPxyIsDnyY8D/M1nnwf44L33A7y5990AYc9CN7GuDV0zM4fPagxdTLGuZyR3zZTkVErMKxkp3BYNm15k6MzCtEwX8F33HYtI1dL4ao5ypxJimWWJnivbYYhXsSwNK0lew8SqSPR8WaZHDSnn01K+Y0n2Ql6Mw+GjfRHFujonWc1P4mBSzMtpyd5AfqItz+sNw3ktnLcWJnp9FVPP+2VRosfSTdNpN4+EkO6Hho6GjoaOhq6jeA0d1sbBrHnXx+HTyszhsxpDVzyhqIExjKS9DYOXPqffR8MNXVTDrRtZiZwp1dMozUYkX0Ua8UXGD1QvxmXuKgyZptXGdGZCsW4XZOi0k/4Q9g8PtTxvVM8rGhb9olIPmzsSkclTWfs7DF3kghO2VP455UpIf0BDR0NHQ0dD11G8hu6ZZ56x9+Gva+q8Zu7w4cP2Pv9nNYaufN6QzHXHcPkJM3TTul83xLJELDWCABsatCiem4Y3/XbNUulMTOSuKVWMql0q21PArc47jfNqmPEJpneD6cHQGeed0bql8k9DR0h/QENHQ0dDR0PXUbyG7ptvvqmbOuD93szM4bMqQ3fOqE1pBt/qbGbobPN0LNw8dcLQAUy9JieiUr2ckeIdmLZk0/NiVM+83TxPfkPXKv80dIT0BzR0NHQ0dDR0HcVr6PCZmZlZZOQA9rX6rMbQZUfV4NytSKRmcHJjhlR02xjNhho6xLEuJWs/YTJkb5fOx2SugCnNV1obuimNe0fDBubq4X6SSvlWXowxZ7oU+SlLVb9nWp4XYZnrCIs56/AupyR5CduLDR1olU47eSSEdD/tauR7+w8G+N7g8wHe/vmbAV4YGg6w6/kXA/xocEeA51/8cYDtA4MBfvTcDwO8/OOhAK+MvBZgh+YnwOD3A7wZez3ACzt+FODHmkc/I3veDBD2luuunTsC/CT6RoCXh/V6fOx6WcvVx1Nbvx/g6e89FeDwoXcDvLz71QBvjUYDjE68G+DHz/0gwN43dwV4ac++AK//7JUAgz/4YYAXhnYFeHPPqwGe+9FwgBd3/DDAs8/9KEDYs9BNrJuXIrymDuvqlvqsxtABd4rTnoK8a0niS5ibSFNDNz2gpuhmvj5tWdG/kWNqwjSslaGbVLB+zbqr26cbb8x6gRmrXJy282HnR08y+UVtdK3Feb1h+F+xqucYc0yZ39C1SqedPBJCuh8aOho6Gjoauo4SZujwwfQraOezWkMH8PLB3oMxMQaioeFhxIb1uLF4aNhSwCyKmM4FeD6u8cIP/MYO4gd+nVE0L63OuzcaaTtPq8k/IaS7oaGjoaOho6HrKPynvwgh5P5DQ0dDR0NHQ9dR+I/zE0LI/YeGjoaOho6GrqNs2bLFHmGDMVvOSB3i4hgcizT86dLQEUJIc6iRhPQua2LoAAwZRtlgzrAerh0QF8eEmTlAsSKEkOZQIwnpXdbM0N0LKFaEENIcaiQhvQsNHSGE9AnUSEJ6Fxo6QgjpE6iRhPQuNHSEENInUCMJ6V1o6AghpE+gRhLSu9DQEUJIn0CNJKR3oaEjhJA+gRpJSO/S0tARQgghhJD1D0foCCGkT6BGEtK70NARQkifQI0kpHehoSOEkD6BGklI70JDRwghfQI1kpDehYaOEEL6BGokIb0LDR0hhPQJ1EhCehcaOkII6ROokWvLn2x4IEBYPEJWwpoZui1btshbb70l77zzjkxMTLQF4uIYHBuWJsWKEEKaQ41cW2joyL1kTQwdDBnM2VdffSXffvuttPtBXByDY8NMHcWKEEKaQ41cW2joyL1kTQwdRtlgzFb6wbFIw58uxYoQQppDjVxbaOjIvWRNDB1G2JYzMuf/4Fik4U+XYkUIIc2hRq4tNHTkXrImhg7r4Zb7OX/+vNy8ebO2JXYa/nTvt1gllMrNvBhTii+MEELWG8008sEQTp04FuAvP5oM8Mn0VIDjx/8qwGuxiQAju4cDHDn22wCDPxwM8NGv3wtw4PCRALHoSwFe/unrAX7y0osBfvbmLwJMvPlmgNfH3g7ws5E9AT7Ta/Hzby78ywCjBw4GmPnNXwb4/ksjAfa/+WqAsf0fBZj4xesBooc+DLB//9sBXnzppwHGXg/y5r4DAd4YeT3AXx48ECDxl/EAr+6eCDC+580A7x2KB/jw10cCHNTr8zOxb38AY8OfBdFnZL3RFYZuZGTEPg5/3c96MHTTimkWxPhE8YURQsh6g4aOho6GjoauoyzH0LlmDnTS0MUHDCnmUlK+VpZMoSTGcKIelhg2pFTI2GGpXFGMgfiisPKlrBQ1bO5EbpGhiyi5k3E9riiFK2UZmsrUjyOEkLWGho6GjoaOhq6jtGvompk5fFZj6GKKdT0juWumJKdSYl7JSOG2aNi0TKvRs24XJHOpKqmppJjXcpK5bmlYTOYQZpUaYTfyYt7VsJqhK5+PSdm0JHEqJ8VzGm5VOXpHCFk30NDR0NHQ0dB1FK+hw9o4mDXv+jh8Wpk5fFZj6IonlDswaUl7GwYvrQbMGJ2WyhdRyd6AuYvaYUnFulMU40RRKl9G1dwhLGKHpdXgmXdLtmlDvCriHW6sp6vm1AReRfxgHggh5H5DQ0dDR0NHQ9dRvIbumWeesffhr2vqvGbu8OHD9j7/ZzWGrnzeqBmzYJhZmJbpgrlon1zPiHG+HAjzrqHLIJ6U1fxZdcSymp6HEELuN8008qHvBPnLg3sD7D/wXoB3D/wiwMeJDwLEJ34Z4NXoaIB3PzgSYP/etwL81XQiwPg7BwP87YmPA7z7biLAX8Z/GeCvP/+7IL/6IMDR1EyAX/z8QIC3f/ZqgOPHjgZ4e7/G9XH84/cDHDryUYDPjv46wLFPfhdg6viJAC+9OhLg4w8PBzj2yScBYhMHAnz4yd8E+OkPdgf44P0PAux+4YcBXn51b4Dderyfw/EgE4cnA7wbHw/w+5P/PIDxXX1u/IQ8R2vNmhu6b775pm7qgPd7MzOHz6oM3TmjNgrnjLR58Zs2rIuTG1kxzi1t6Cpq6IwBjVsLJ4SQ9QQNHQ0dDR0NXUfxGjp8ZmZmFhk5gH2tPqsxdNlRTJVWJHLMWd+WG1MzptvGaNaeji1blhhjzgsNhWMRDVMTFxJWPBkRU5w1dFHdhvGL5zQdNYowguWvpyVxQU2efieEkLWGho6GjoaOhq6j+A0dPl5Th3V1S31WY+hA6UxMRI2aPT1615LElw0jVrk4be9DmHlXJHamZB+DsKqaNEv3ISx3S8OvOyN0CE+rMRSzhJlWe7q1ZIqav3T9nIQQspbQ0NHQ0dDR0HWUMEOHD6ZfQTuf1Ro6MKTsPRgTY8B5AcJLdMCQmAqYYQwFwmLDeuxY46dM/OyNqjGM4tjwcEIIWQto6GjoaOho6DoK/+kvQgi5/6ylRj478GwAw8A/feUn/Pj1wmNbHguw5fEgYcfeD554bFOADRv/LEDYse3yPb13fsLi/cVfPB4gLB7pDGti6PiP8xNCyP2Hhm710NDR0K1X1sTQbdmyxR5hgzFbzkgd4uIYHIs0/OnS0BFCSHNo6FYPDR0N3XplTQwdgCHDKBvMGdbDtQPi4pgwMwdo6AghpDk0dKuHho6Gbr2yZobuXkBDRwghzaGhWz00dDR06xUaOkII6ROokYT0LjR0hBDSJ1AjCeldaOgIIaRPoEYS0rvQ0BFCSJ9AjSSkd6GhI4SQPoEaSUjvQkNHCCF9AjWSkN6lpaEjhBBCCCHrH47QEUJIn0CNJKR3oaEjhJA+gRpJSO9CQ0cIIX0CNZKQ3oWGjhBC+gRqJCG9Cw0dIYT0CdRIQnoXGjpCCOkTqJGE9C40dIQQ0idQIwnpXdbM0G3ZskXeeusteeedd2RiYqItEBfH4NiwNClWhBDSHGokIb3Lmhg6GDKYs6+++kq+/fZbafeDuDgGx4aZOooVIYQ0hxpJSO+yJoYOo2wwZiv94Fik4U+XYkUIIc2hRhLSu6yJocMI23JG5vwfHIs0/OlSrAghpDnUSEJ6lzUxdFgPt9zP+fPn5ebNm7UtsdPwp7vexCo6oEzs1e+RQJiX2LAhQ2Px0DBCCOkU91ojI8reiagYA0ptn3UlLcbZ0qJ4K6F4ypCqWGIczIWGt0N8bEiM4Zj9fa8iN3Myd0XT9MRZTySUys28GFOKL4wQP11h6EZGRuzj8Nf9dIOhK3yimKZ+nw6EeSmfNyRzXULDCCGkU9xrjZxWTLMgxidKbZ9cz4hxvrwo3kqIawc5cSql39WUhYS3gz8vqakhiRxAmsG464Gw8iSkGeve0LlmDnTS0EEcSvk5KV0rS+JsQYrnJsU44fT8irmkzB3LSPlKXuLniva+uSMRKV/KO/HP4eFyRKV4Li7xU7lFaWFELnNQH8QbRTHvipSvVepp+8md0B7srbJU74gU9fhXDup5Na3o6cYDnNK85q9pD+3VOft8MU0L5yvjfBeQv4bAJYb1ugqahoalcho2wJE/QojDcjQyOQYtyQa0BNqWuQTdWbwd1+3KpYzIXVPKN0xJ5hzjBBOVuFBW/czaGhk/jdEmZ9YCI3q5k3E9R1EKV8oyNKWGS/cBaF1CtRXHIa0k4l6DjiZt3US+vLjniymFC0ndV5LcpXLdsJVV1+VOVcq3LM0v4sYd/a5p/FJ5CdN5NzyMVlqcUSNZvqLtjobFT+KaGmnhOFwzwuZU672GrlUeCVnXhq6ZmcNnNYZuUpFqXsVBRWcqJZUrKkIYSav13CBAFdOS7JdFiR5L2yNtpopUSgUjPZUQq1qQyYtVO65ZmJaKZUnyXEnypxIiVkWims70qD6U+bSU72g6F1TADof3AlOHDale1oe3KpK+kBVjVNP7IirZGxixc6Ytyucj9W2cr6p5S+XLkvlU83KrKKlLGAWMyLQaP+t2QcWqqj3PpJgqfplrmE5oTH8QQvqXdjUyo/plWaoxqiXJg0mxrmdl7iq0JBKYeXC3o7qdPzst1p2yZFWfJk+pnmk49LRsiiTPoOOsaVmqnbPOFGz5fEzDLNu4IczUsMgxx7zYWqfa6qaVQXz9zzAytm5mVS9BQYHuxi6o9moc61pGimra4p/qedXYlTQNY2BOsqcmVfeLkr1clemzyJujp9MFXMvSeQnTeYSF4ddi60a+rsWFYxG9Lm171EjmNC3LLEusltYcjrNKDQ3X48y7elzN0IXlkaN3xGXNDR3WxsGsedfH4dPKzOGzGkNXPAkBwsPlCJJr8LyGLqLi4MZHr2go2jBFlQuR+hSpVxBA9WJchc8JW+mUa0Yf6spdzcto1hYouaF/v3Dyg/Ol7fSdHl1WhbdyV8M0Loxguia6CIM4VO+ocB7k+gtCyPJ0PRrFyL+jJYVjDS1rZuiw3WzK1aunrmZixM26UxTjhDNCBrydWb+2eg2duw/ajHiZ69A9Z21cdFjDamv4/PlBXrxTrivNi1fnw/B3yhOqxakLc6rnaio9eg6KJxTt+GPksfJltNYWOOWe1uPMu6rhmn/ksYo8Hm7oeTUXa5kP0l+suaF75pln7H3465o6r5k7fPiwvc//WY2hC1uz5n3Q/Q89hvAxDWveKutDb4loj6mZofOmvVJDB5GSq2mJflmxDVtJe4PGQNoOw/mw343rFSyEWXe186h5dNGOMXtwhBCbdjUSGlQ4mxDzZsnRPMtSLYNGrczQhZmoMIPmTcuvrWHxMWJVuK1maKChsekjEalcKWi+Tc32Yg3sVF6WWvfsj+8SVj7ec/uP88ZHPNF4Xn3HfWmVD9JfrLmh++abb+qmDni/NzNz+KzK0J0zJKfe0e092QZKe03NDF01F9f4lkQnkrodWfQwt3rQV2roQOlMxM5j5YvJRaNu/vOlsA+9tinH0IWJCCGEgHY1sjSrmJbEptCRHFqkZX5d824v19BVYGQGnKlZYI8E3kZaaiZ9euY3XfnDmtbdxVOOc4pplSRxpmS/zerPT6fysqSh+zoRqsX1/NSmckF2ANeFTvrShs6fR0K8rIs1dDMzM4uMHMC+Vp/VGDqsDzEtLM4tqZmLSOFkVATC0MTQeR+yIcW6mm7P0E2pKGovEes33PAwbIN5C8c4UwbANWoWhPJkYxoA59PT1Xuk6KG6w/UYui/h+7BzvsyY5kF72HiZwj2eENK/tN3pVR1zpgwjdoe3mk84ugNDp7pWuWtK5EDW1kPzUrIehp/ZwNqxSG2NHGimp+5yEkc/I/ZMiKVxk5egZ0Ft9Ro6d42au/bMG8drevJHImJKw/TJtYzEcrpdi7/SvCxl6KDFZazdG3PMZ/FkpK7TlpaXO0XsThm707Nhx5n4qRbNv5vHeA7mz7kv5a+1zC8sLgPSv6yblyK8pg7r6pb6rMbQgaw+6NZtZ/g6e03V6MbiNXReAYIxEjWAiGvqw1a9Xm7L0GFtnqUPIKZBjdMNU+YHb7GKWVSR1Hie31jCg1+8g7QwMujsw/nwBhkWFiM/FUskcsxZU4EHvHIR0661IXn9O33Refjd4wkh/Uu7GgnDJNUCZvTsacvKtWp9FA5mx7yStnUY2lYqlOthOBazCliWMncZpiWop17NTENbzZJ9Hvwvf1OPqXVW/drqNXQYAfN/oLu2+VST4y49KVdVs03VwJqhK56K2G/hOjM08RXnZSlD59fiquYnNuu0AbYZvZmvn6cEMzzmLKnx5z93S/N/3RmhQ7g/j95jCVk3hg4fTL+Cdj6rNXRDwzA5jtHBQ+Sdcg0DceL4wczaj1IuF4gR1j/4P16R8AND5w93hQU94+gE8hI0awiLHUTYyn+viRDSeyxX1/FDvJEofhw9PLxTdPo8+LH26AR+JmT5ndnl5AV67P9A5d1pYfy4fOwg0gpq8d5opOkPyi/1Y/M49n7cF9JdrImhW+t/+iv9spqlO/iNoqqkz6SlcinnDHOPOg/hWjN3UHuAhZw9rWGMLf79On9PkRBC2uVe6johZG1ZE0O3Hv5xfvx4YxG/E3etLNlCaV39Wjh+YylzIRuap/SxqP3beP79hBCyFDR0hPQua2LotmzZYo+wwZgtZ6QOcXEMjkUa/nQpVoQQ0hxqJCG9y5oYOgBDhlE2mDOsh2sHxMUxYWYOUKwIIaQ51EhCepc1M3T3AooVIYQ0hxpJSO9CQ0cIIX0CNZKQ3oWGjhBC+gRqJCG9Cw0dIYT0CdRIQnoXGjpCCOkTqJGE9C40dIQQ0idQIwnpXWjoCCGkT6BGEtK7tDR0hBBCCCFk/cMROkII6ROokYT0LjR0hBDSJ1AjCeldaOgIIaRPoEYS0rvQ0BFCSJ9AjSSkd6GhI4SQPoEaSUjvQkNHCCF9AjWSkN6Fho4QQvoEaiQhvcuaGbotW7bIW2+9Je+8845MTEy0BeLiGBwblibFihBCmkONJKR3WRNDB0MGc/bVV1/Jt99+K+1+EBfH4NgwU0exIoSQ5lAjCeld1sTQYZQNxmylHxyLNPzpUqwIIaQ51EhCepc1MXQYYVvOyJz/g2ORhj9dihUhhDRnPWvk3mhEItG99e3ogDKB7Uh9HyGkOWti6LAebrmf8+fPy82bN2tbYqfhT/d+iVXprCHpK5b9vfLlXilZot/nFsVZDfdCyO5FPgkh3UW7GplWSndK+j0dCAPxsSExhmP17U5olnV1TiLny/Xt0mlDMtctzUukZV5WS+ViQhIXK/Z364qe4yzOFR53uUSUvRNRMQYUX5hLfjYm1u2yWHcsyV83xRhraDSOL56Ni2VWxdTwZA7lo2VfC08OG2Jez9nHFm+ZEjnQKKOljiW9R1cYupGREfs4/HU/a2noyuchNDBHhiT0gYqfTOn3zpmvwieKqQ+2MR0IWyn3Ip+EkO6iXY3MKGX9zzAygTAg13W/x3ytVrNSSuVOUYzRXH2fdTkl0S8rS+ZltZiFaZkuIO/B61ot04ppFsT4RPGFAZRb1TIldiovseEhzUtKcrfQtsTt8NLpiFQsS6LHcpI+HBW5XZTJi1U7bFKRal7Sl02JRielkpvWTrul5tExhK2OJb3Jujd0rpkDnTJ0SSVzKac9o2kpXtPe2MGM3ZvJnYxL+VpRClfKMjTVEA+E5U8jrCTpQknKFxJ1Q5c5iLRUiPQBLJ6LS+JUTsqXsrXekGOkSoWMHluWVE7jDTgParMwpGfeKIp5V3S/9hpPNATOTzmXXBTu3S7q97ljmvaVvMTPFRfl041PCOkvlmvoslNZWxPzqomRA45RgM7InaqUb1mqKWXVlnhAs6A3SdU0jD5BN7MazxhONNI/EZPYiYbG5jV+vgqz4ehTXKmqWTEO5gOGrpWmxgegfSk7LKNa7T3n3JGIanNeShqWOAeD5YxW+Q1d4oKeTTUc8eKnNQ+eTnBmakg1taDthoadhNY6YUNK4VzCvtYcrnUsaV9D5VJG5K4p5RtmvU3wXnv6k1dk8lTW/g6ymv+yYLTQaZOQH5haN7x4EsYZs0PTthks3kG+0VE3JIr4N3P2KOdSx7r7SG+xrg1dMzOHz2oMHQTCuluW4k1T0hf0oRydlvJ5FR6t7DBkxXNJMS0Vl1qvqnpxUsPEDitpmGVpr7Fm6Lw9UwhDVXtE2XzZfkin9eG0bhdU9KqSmtI0r6nQXcMDFQ2EWTdUuDRsejQq5Xxaync0nQsqJoedhzUMf2/Su43vFb2e7JdF7aGl78moHyGku1iORqo9k8I1NSKfpqWqxsQe/THmJHtqUqRalOzlqkyfVZ0L0SzojalmI3+9KsmplH18EWZiIOUYjxtZyd6Ahr5in6/ypWpizVSB3Cj0CmZkepGhC9XU68iXmiSNZ6nu5ZBnPad5JSOF2ziHY35MNVYpNVXpqYRY1UJ9tMpv6KD1yTNq2myt1zizzhRs4VjEHk1Lagc5d0rTMMsSq+kt2oiCGtz4VFoqaniLWhZRIyn5s9Ni3VFjXGsTwq7dBaawkktoWK2N0G3/6B7KooKyGMhK5UKk3g65uNey1LHeY0jvsOaGDmvjYNa86+PwaWXm8FmtofNWbIzYVTHcfxi9MSdONReTuatiTwWYCPM8GNX8ZFND5xWlyhdRSV/Fw+n04uZUjKpYC6K9ToQ5D7WztiKhYakL6AGrMLRpvpYydJELjd4ZDR0hZKUa6TcIfu3x6wu2S2qgjAFnTZdrZKJfNDTJBaNJMGLG6cbatfL5iOovtNPJi2vo/LoJ7bagzyeKUjyBESsck7TDYPDSasrQYcc5hqKNdWxeM+Q3dF7ddMPC8u89n1zLSDwHgxixzxUZdkb/lppydcF58IGZjHzglLn3ut143vT87Q1wlwMtdaz3GNI7rLmhe+aZZ+x9+OuaOq+ZO3z4sL3P/1mtofNWdmyjN4qFpS7aNWv6YHjX0LUydNi27mpSnnT1eW36MLp0ytC1ElxCSP+xUo1ciaHL3cR2w0Q107w5pWypmRtwzgW8L0h48xKWhpsXry77gbnDMhTzlqPzctfRd4R50/RflxsWZoa8+cofi6jQV8TUpPNXKvXp6eWYKIzQFc9MalloXkYzjcGEqcXntI32aM4e1cxcW3y95tcJSV22ljzWewzpHdbc0H3zzTd1Uwe835uZOXw6beiaDUWHhXl7d14h84tNMwGzw/TBaxbWrvnyi493eynBJYT0H/fT0Pn1Bi85JL4Oah7WduVuOtOM2Pa/IOHNi19T7bViN1Sbz2mMc0Zt9C744lc1F7fPEZ3A6F1kkflblqE71jBI3vVu7r7E2JCUcyndq9czml3S0OFtYe9PtcB4yi29br0erMHDSw+RM42Ry/xhjHxiJHDOfgs4X8U1TNphdllcTUv8YnXJY919pLdYF2voZmZmFhk5gH2tPp00dO5wejyHh9MZMi9/PW0vjnXDnAc+4jxwN7FuY2lDhyH5kvYGjWHnAcqMadyb+oC9OmeHlbEmZczJQ/FkpD58X5jCcZpO7W2lZmCYP3kJ5xuS7AHtId7V/NPQEUKa0DFDp9oTs6cYnfh+zYLemPpfpGaAoH2WpemdUKOGbc+LAdBNmBB8d4/NV6FVzssO3rz4dRPr2iqY2lXzlB3VtFQD3XPm9JwVaKKGebUZI2GWGp/lGDp8ty4l9RhodMxuIxAGA7lXjWjlSloiJ53zYmmNiaU1UwVJ4LjbBYnU1uEB77VXL8YdE1p7sQM6XkWea8t/MMVsrwMcmK6vEUxeQh4a083uOj5vWSx1LOlN1s1LEV5Th3V1S306aehAWh9+MUuYabWnW0umPghjzvoPiJHcKdthpv6veLGkD7bzkLcydHjoKxcx7VqbctW/0/bvHTmm0RtWvSsSm3XEDq+jW2oiMV1rnHb2heEO84vGK2hPTW6ooNDQEUKa0ClDVzyFDqQpuZuqUWq8/JoFvamo3ljV2lIWj/Z5XwyIGq+IqR1k7wiW/wUJb178uok3a2OeUajSmZidL/ecCfstz4ij4Woo7WNUw6vXy8s2dPYLGTfzoW3EovNqWEoF2R1xrHwxqWGWzF3GixKNa8dLEVg7beF35PQ63OuJ27+D54wywoiZahYRjnPmMZKpBg1hwG0DwspiqWNJ77FuDB0+mH4F7XxWY+ha4f+1chcIyVI/ENkM9AhjB/EjnMEfdcQPcsYO4nzhP/gIYVQb6Vy05+MVHUIIaYd7qetevB3IvfgR4ia6mVH9K2pn2f3pDeis/YLEyeYdWdBKN6G3e6G3vnMi7Tg03PODyCsBbcTQWPDnn5qdtx2W+mHm2LDmP6RdAriuGK6rSRvS6ljSW6yJoeM//UUIIfeftTB0YeEu06OGTJ5q/OsGGMFKncUxzrowQkj7rImh4z/OTwgh95/7pZEwatNnYdSWP1pFCFkZa2LotmzZYo+wwZgtZ6QOcXEMjkUa/nRp6AghpDnUSEJ6lzUxdACGDKNsMGdYD9cOiItjwswcoFgRQkhzqJGE9C5rZujuBRQrQghpDjWSkN6Fho4QQvoEaiQhvQsNHSGE9AnUSEJ6Fxo6QgjpE6iRhPQuNHSEENInUCMJ6V1o6AghpE+gRhLSu9DQEUJIn0CNJKR3aWnoCCGEEELI+ocjdIQQ0idQIwnpXWjoCCGkT6BGEtK70NARQkifQI0kpHehoSOEkD6BGklI70JDRwghfQI1kpDehYaOEEL6BGokIb0LDR0hhPQJ1EhCehcaOkII6ROokYT0LjR0hBDSJ1AjCeldaOgIIaRPoEYS0rv0paF7XPnpz4fEeHigvi/yXUP2vLFbHviLFxbFJYSQXqFdjXzjR1tl02A0sP+lpx6Qx4dj+v2BQJjL2IuPi7FN9TUkjBBy7+hLQ/eE8sbEbjE2PedsP2jI+PhuefBJ3eeJRwghvUS7GvnCnytvjen3RvwHlIlXI/LA0z+p7wtj4uUnxKCWEnLf6XtDt+k7huwb1b8/2LMoTuSRh+SlXS/Icy++JA88rAKl+7Y/rLyInuemerwXnnpIHn6KvVFCyPqnXY18RIm99YIYWxozFgMPGbJ7f1SM7zh6+P2/eDigkcA1dEhjYBdmQZxz+rcfUu19IfKIpvGSPPGcaugDD9v7CSEro68N3SY1dLaZe26xmdv95IPyUmxMHv7ziLzw5COyZ+yntvnzi9wmbL/x3CLRI4SQ9cpydP2N5zbJI89jetXZjn7vIXn8x+P29z0/2KQauc/WyB2PPSzRcTV6G50lLK6hg87uRsfZcMyed/tB/T6m8SK7YvLIw1vlp88/Ic+NYkSw0VkmhCyPvjV0Yyos46N7ZM/EhArR9+thMG17YNo8+34aeVD+YtgRMq/IvbAF0xL43n1lRQjpP5aj69/fqPr2c3R2t8pDuj2+RzXxsWE77IHvaJwHGuvoJl7ZXp9mbcfQQTu/vwfa+ZAdBoM3/tNIPX1CyPLpW0M3ocLyxMvjsvvJh52e4XecniHC9mnY2M/HlTGbfeNjGleNn4Z5RS72/CPy0PcWj+4RQsh6ZTm6bpu46IBtsmzdewta5xz/yINqzp6PyNgbURkbG5OJffuWZeh2P6lp75uoayyY2Ked5loahJDl0/dr6OyeoQrQ47swAvdAQ3S+oz3OWnwvELkx7ak+8ucvBEbyCCFkPbNcXf/JMw/YsxPemQnb6P10QB753k/E+JMH7X3eFyHaNXTbX3E6yYSQztD3hg7beDFi/I0d9luueJNr36vb5aFI402u3T/YJA8/9VJ9GyL3xhvjEnkVaz6av75PCCHrieXq+vY/MWTP+E/kDYzOuXqp2GuHN+2wtx9/QE3c+HDA0OHnod7Y/5I8sMWJt/vph9TQoeP8hJ3uT/apxj4UcdJUDX7pZU3z4fCONCFkaWjoavue26TCtc8RrccfVFP3xpCMje2TfWNjMvTGPjEefLweF2I0sf8nS76+Twgh64mV6DoM2vf3YDTNWe8GXnryQRnf60yVvvTWmEz8VPXUZ+jw/aff26RaOSb79u2THT/Ys2jEbmjbg7Jv7xvOshZN6/EX39D9zogfIWT59KWha5cH1bi5UwpeYOh2o3dZe32fEEK6gU5qJF6MePAh6OPqZikefFCP/w5nOghZLTR0y+S5Jx+R8Z++IFt3Nl7nJ4SQbqAbdZ0Q0h40dMsA6+u2b9skDz+GdR7sURJCugsaOkJ6Fxo6QgjpE6iRhPQqhvz/YTsp5VMo2Z0AAAAASUVORK5CYII=;" vertex="1" parent="1">
                    <mxGeometry x="426.41" y="515" width="389.18" height="220" as="geometry"/>
                </mxCell>
                <mxCell id="23" style="edgeStyle=none;html=1;exitX=1;exitY=0.5;exitDx=0;exitDy=0;entryX=0;entryY=0.5;entryDx=0;entryDy=0;endArrow=classic;endFill=1;" edge="1" parent="1" source="24" target="13">
                    <mxGeometry relative="1" as="geometry"/>
                </mxCell>
                <mxCell id="24" value="Grab Access Token from that response" style="rounded=1;whiteSpace=wrap;html=1;" vertex="1" parent="1">
                    <mxGeometry x="773" y="409" width="120" height="60" as="geometry"/>
                </mxCell>
                <mxCell id="25" value="dont need to do anything else for this user, they've authed your bot" style="rounded=1;whiteSpace=wrap;html=1;" vertex="1" parent="1">
                    <mxGeometry x="349" y="177" width="120" height="60" as="geometry"/>
                </mxCell>
                <mxCell id="26" style="edgeStyle=none;html=1;exitX=0.5;exitY=1;exitDx=0;exitDy=0;entryX=0.5;entryY=0;entryDx=0;entryDy=0;endArrow=none;endFill=0;" edge="1" parent="1" source="28" target="29">
                    <mxGeometry relative="1" as="geometry"/>
                </mxCell>
                <mxCell id="27" style="edgeStyle=none;html=1;exitX=1;exitY=0.5;exitDx=0;exitDy=0;entryX=0;entryY=0.5;entryDx=0;entryDy=0;endArrow=classic;endFill=1;" edge="1" parent="1" source="28" target="30">
                    <mxGeometry relative="1" as="geometry"/>
                </mxCell>
                <mxCell id="28" value="Send http request to subscribe to an event" style="rounded=1;whiteSpace=wrap;html=1;" vertex="1" parent="1">
                    <mxGeometry x="1246" y="409" width="120" height="60" as="geometry"/>
                </mxCell>
                <mxCell id="29" value="you must pass the ws session id if using websockets. set broadcaster_id = the actual user that authed the app, user_id = your bot broadcaster id. Headers need your client_id as well as the BOT auth token you got" style="rounded=1;whiteSpace=wrap;html=1;" vertex="1" parent="1">
                    <mxGeometry x="1127" y="531" width="358" height="167" as="geometry"/>
                </mxCell>
                <mxCell id="30" value="You should be subscribed now" style="rounded=1;whiteSpace=wrap;html=1;" vertex="1" parent="1">
                    <mxGeometry x="1458" y="409" width="120" height="60" as="geometry"/>
                </mxCell>
            </root>
        </mxGraphModel>
    </diagram>
</mxfile>